<?xml version="1.0" encoding="UTF-8"?><svg xmlns="http://www.w3.org/2000/svg" xmlns:xlink="http://www.w3.org/1999/xlink" fill-opacity="1" color-rendering="auto" color-interpolation="auto" text-rendering="auto" stroke="black" stroke-linecap="square" width="2030" stroke-miterlimit="10" shape-rendering="auto" stroke-opacity="1" fill="black" stroke-dasharray="none" font-weight="normal" stroke-width="1" height="1008" font-family="'Dialog'" font-style="normal" stroke-linejoin="miter" font-size="12px" stroke-dashoffset="0" image-rendering="auto">
  <!--Generated by ySVG 2.5-->
  <defs id="genericDefs"/>
  <g>
    <defs id="defs1">
      <clipPath clipPathUnits="userSpaceOnUse" id="clipPath1">
        <path d="M0 0 L2030 0 L2030 1008 L0 1008 L0 0 Z"/>
      </clipPath>
      <clipPath clipPathUnits="userSpaceOnUse" id="clipPath2">
        <path d="M359 291 L1374 291 L1374 795 L359 795 L359 291 Z"/>
      </clipPath>
      <clipPath clipPathUnits="userSpaceOnUse" id="clipPath3">
        <path d="M-11.7353 -277.119 L1004.334 -277.119 L1004.334 226.881 L-11.7353 226.881 L-11.7353 -277.119 Z"/>
      </clipPath>
    </defs>
    <g fill="rgb(88,88,88)" text-rendering="geometricPrecision" shape-rendering="geometricPrecision" transform="scale(2,2) translate(-359,-291)" stroke="rgb(88,88,88)">
      <rect x="359" width="1015" height="504" y="291" clip-path="url(#clipPath2)" stroke="none"/>
    </g>
    <g fill="rgb(255,204,0)" text-rendering="geometricPrecision" shape-rendering="geometricPrecision" transform="matrix(2,0,0,2,-718,-582)" stroke="rgb(255,204,0)">
      <rect x="439" width="150" height="30" y="324" clip-path="url(#clipPath2)" stroke="none"/>
    </g>
    <g text-rendering="geometricPrecision" stroke-miterlimit="1.45" shape-rendering="geometricPrecision" transform="matrix(2,0,0,2,-718,-582)" stroke-linecap="butt">
      <rect fill="none" x="439" width="150" height="30" y="324" clip-path="url(#clipPath2)"/>
      <text x="481.0674" xml:space="preserve" y="343.5352" clip-path="url(#clipPath2)" font-family="sans-serif" stroke="none">Consul SPH</text>
    </g>
    <g fill="rgb(255,204,0)" text-rendering="geometricPrecision" shape-rendering="geometricPrecision" transform="matrix(2,0,0,2,-718,-582)" stroke="rgb(255,204,0)">
      <rect x="829" width="150" height="30" y="324" clip-path="url(#clipPath2)" stroke="none"/>
    </g>
    <g text-rendering="geometricPrecision" stroke-miterlimit="1.45" shape-rendering="geometricPrecision" transform="matrix(2,0,0,2,-718,-582)" stroke-linecap="butt">
      <rect fill="none" x="829" width="150" height="30" y="324" clip-path="url(#clipPath2)"/>
      <text x="871.0381" xml:space="preserve" y="343.5352" clip-path="url(#clipPath2)" font-family="sans-serif" stroke="none">Consul BGL</text>
    </g>
    <g fill="rgb(255,204,0)" text-rendering="geometricPrecision" shape-rendering="geometricPrecision" transform="matrix(2,0,0,2,-718,-582)" stroke="rgb(255,204,0)">
      <rect x="1183" width="150" height="30" y="324" clip-path="url(#clipPath2)" stroke="none"/>
    </g>
    <g text-rendering="geometricPrecision" stroke-miterlimit="1.45" shape-rendering="geometricPrecision" transform="matrix(2,0,0,2,-718,-582)" stroke-linecap="butt">
      <rect fill="none" x="1183" width="150" height="30" y="324" clip-path="url(#clipPath2)"/>
      <text x="1223.8311" xml:space="preserve" y="343.5352" clip-path="url(#clipPath2)" font-family="sans-serif" stroke="none">Consul MTS</text>
    </g>
    <g fill="rgb(255,204,0)" text-rendering="geometricPrecision" shape-rendering="geometricPrecision" transform="matrix(2,0,0,2,-718,-582)" stroke="rgb(255,204,0)">
      <rect x="463.5" width="101" height="30" y="466" clip-path="url(#clipPath2)" stroke="none"/>
    </g>
    <g text-rendering="geometricPrecision" stroke-miterlimit="1.45" shape-rendering="geometricPrecision" transform="matrix(2,0,0,2,-718,-582)" stroke-linecap="butt">
      <rect fill="none" x="463.5" width="101" height="30" y="466" clip-path="url(#clipPath2)"/>
      <text x="471.4053" xml:space="preserve" y="485.5352" clip-path="url(#clipPath2)" font-family="sans-serif" stroke="none">Agent Registry</text>
    </g>
    <g fill="rgb(255,204,0)" text-rendering="geometricPrecision" shape-rendering="geometricPrecision" transform="matrix(2,0,0,2,-718,-582)" stroke="rgb(255,204,0)">
      <rect x="853.5" width="101" height="30" y="466" clip-path="url(#clipPath2)" stroke="none"/>
    </g>
    <g text-rendering="geometricPrecision" stroke-miterlimit="1.45" shape-rendering="geometricPrecision" transform="matrix(2,0,0,2,-718,-582)" stroke-linecap="butt">
      <rect fill="none" x="853.5" width="101" height="30" y="466" clip-path="url(#clipPath2)"/>
      <text x="861.4053" xml:space="preserve" y="485.5352" clip-path="url(#clipPath2)" font-family="sans-serif" stroke="none">Agent Registry</text>
    </g>
    <g fill="rgb(255,204,0)" text-rendering="geometricPrecision" shape-rendering="geometricPrecision" transform="matrix(2,0,0,2,-718,-582)" stroke="rgb(255,204,0)">
      <rect x="1207.5" width="101" height="30" y="473" clip-path="url(#clipPath2)" stroke="none"/>
    </g>
    <g text-rendering="geometricPrecision" stroke-miterlimit="1.45" shape-rendering="geometricPrecision" transform="matrix(2,0,0,2,-718,-582)" stroke-linecap="butt">
      <rect fill="none" x="1207.5" width="101" height="30" y="473" clip-path="url(#clipPath2)"/>
      <text x="1215.4053" xml:space="preserve" y="492.5352" clip-path="url(#clipPath2)" font-family="sans-serif" stroke="none">Agent Registry</text>
    </g>
    <g fill="rgb(255,204,0)" text-rendering="geometricPrecision" shape-rendering="geometricPrecision" transform="matrix(2,0,0,2,-718,-582)" stroke="rgb(255,204,0)">
      <path d="M439 707 L1237.2996 707 L1326 747 L1237.2996 787 L439 787 L527.7011 747 Z" fill-rule="evenodd" clip-path="url(#clipPath2)" stroke="none"/>
    </g>
    <g text-rendering="geometricPrecision" stroke-miterlimit="1.45" shape-rendering="geometricPrecision" transform="matrix(2,0,0,2,-718,-582)" stroke-linecap="butt">
      <path fill="none" d="M439 707 L1237.2996 707 L1326 747 L1237.2996 787 L439 787 L527.7011 747 Z" fill-rule="evenodd" clip-path="url(#clipPath2)"/>
      <text x="843.7285" xml:space="preserve" y="751.5352" clip-path="url(#clipPath2)" font-family="sans-serif" stroke="none">Serveurs DNS</text>
    </g>
    <g text-rendering="geometricPrecision" shape-rendering="geometricPrecision" transform="matrix(1.9979,0,0,2,23.4459,554.238)">
      <g clip-path="url(#clipPath3)">
        <svg xml:space="preserve" opacity="1" writing-mode="lr-tb" stop-color="rgb(0, 0, 0)" shape-rendering="auto" glyph-orientation-horizontal="0deg" color-profile="auto" lighting-color="rgb(255, 255, 255)" color="rgb(0, 0, 0)" font-weight="400" alignment-baseline="auto" font-style="normal" version="1.1" color-interpolation-filters="linearrgb" text-anchor="start" stroke-linecap="butt" color-interpolation="srgb" font-variant="normal" word-spacing="normal" fill-opacity="1" text-rendering="auto" clip-path="none" text-decoration="none" letter-spacing="normal" viewBox="0 0 57 67" glyph-orientation-vertical="auto" display="inline" font-size-adjust="none" overflow="hidden" fill="rgb(0, 0, 0)" font-stretch="normal" stroke-dasharray="none" id="svg1.Ebene_1" stroke-miterlimit="4" stop-opacity="1" color-rendering="auto" font-size="12" pointer-events="visiblepainted" mask="none" direction="ltr" baseline-shift="baseline" enable-background="new 0 0 57 67" fill-rule="nonzero" image-rendering="auto" stroke-dashoffset="0" width="57px" marker-end="none" clip="auto" cursor="auto" stroke="none" filter="none" visibility="visible" kerning="auto" stroke-width="1" font-family="&quot;Arial&quot;,&quot;Helvetica&quot;,sans-serif" flood-opacity="1" clip-rule="nonzero" src="none" height="67px" unicode-bidi="normal" stroke-linejoin="miter" stroke-opacity="1" flood-color="rgb(0, 0, 0)" dominant-baseline="auto" marker-start="none" x="0px" marker-mid="none" y="0px">
<g>
	
		<radialGradient gradientTransform="matrix(1 0 0 -1 0.1201 -706.5371)" gradientUnits="userSpaceOnUse" r="11.4464" cx="28.0298" id="svg1.neck_x5F_white_1_" cy="-751.9429" fx="25.7969" fy="-753.1596">
		<stop offset="0" style="stop-color:#B38E5D"/>
		<stop offset="1" style="stop-color:#805126"/>
	</radialGradient>
	<path fill="url(#svg1.neck_x5F_white_1_)" id="svg1.neck_x5F_white_2_" d="M19.278,37.799h18.188   v13.23c-1.313,0.371-17.173,0.436-18.188,0.172V37.799z" stroke-miterlimit="10" stroke="#5B453B"/>
	
		<radialGradient gradientTransform="matrix(1 0 0 -1 0.1201 -706.5371)" gradientUnits="userSpaceOnUse" r="31.0533" cx="27.481" id="svg1.SVGID_1_" cy="-760.3003" fx="21.4231" fy="-763.6011">
		<stop offset="0" style="stop-color:#B38E5D"/>
		<stop offset="1" style="stop-color:#805126"/>
	</radialGradient>
	<path fill="url(#svg1.SVGID_1_)" d="M49.529,51.225c-4.396-4.396-10.951-5.884-12.063-6.109   V37.8H19.278c0,0,0.038,6.903,0,6.868c0,0-6.874,0.997-12.308,6.432C1.378,56.691,0.5,62.77,0.5,62.77   c0,1.938,1.575,3.492,3.523,3.492h48.51c1.947,0,3.521-1.558,3.521-3.492C56.055,62.768,54.211,55.906,49.529,51.225z" stroke-miterlimit="10" stroke="#5B453B"/>
	
		<radialGradient gradientTransform="matrix(1 0 0 -1 0.1201 -706.5371)" gradientUnits="userSpaceOnUse" r="23.424" cx="27.7827" id="svg1.face_x5F_white_1_" cy="-732.2632" fx="23.2131" fy="-734.753">
		<stop offset="0" style="stop-color:#B38E5D"/>
		<stop offset="1" style="stop-color:#805126"/>
	</radialGradient>
	<path fill="url(#svg1.face_x5F_white_1_)" id="svg1.face_x5F_white_2_" d="M43.676,23.357   c0.086,10.199-6.738,18.52-15.246,18.586c-8.503,0.068-15.467-8.146-15.553-18.344C12.794,13.4,19.618,5.079,28.123,5.012   C36.627,4.945,43.59,13.158,43.676,23.357z" stroke-miterlimit="10" stroke="#5B453B"/>
	
		<linearGradient gradientTransform="matrix(0.275 0 0 0.2733 -783.3976 -1542.678)" x1="2941.4297" x2="2965.0596" gradientUnits="userSpaceOnUse" y1="5674.7988" y2="5768.2505" id="svg1.face_highlight_1_">
		<stop offset="0" style="stop-color:#FFFFFF;stop-opacity:0.42"/>
		<stop offset="1" style="stop-color:#FFFFFF;stop-opacity:0.12"/>
	</linearGradient>
	<path fill="url(#svg1.face_highlight_1_)" id="svg1.face_highlight_2_" d="M27.958,6.333c-6.035,0.047-10.747,4.493-12.787,10.386   c-0.664,1.919-0.294,4.043,0.98,5.629c2.73,3.398,5.729,6.283,9.461,8.088c3.137,1.518,7.535,2.385,11.893,1.247   c2.274-0.592,3.988-2.459,4.375-4.766c0.183-1.094,0.293-2.289,0.283-3.553C42.083,13.952,36.271,6.268,27.958,6.333z"/>
	<path fill="#4B4B4B" d="M28.372,0.5   C17.537,0.5,8.269,7.748,9.153,26.125c0.563,6.563,5.862,12.042,9.366,13.531c-2.929-10.968-0.304-25.021-0.585-25.526   c-0.281-0.505,3.536,6.728,3.536,6.728l3.183-8.312c5.541,4.28,0.393,11.309,1.049,11.058c4.26-1.631,5.34-9.228,5.34-9.228   s2.729,3.657,2.701,5.504c-0.054,3.562,2.194-6.067,2.194-6.067l1.027,2.031c6.727,9.822,3.684,16.208,1.654,22.781   c15.665-0.703,12.289-10.48,9.658-18.407C43.59,6.092,39.206,0.5,28.372,0.5z" id="svg1.path9833_2_" stroke="#000000" stroke-linecap="round" stroke-linejoin="round"/>
	
		<radialGradient gradientTransform="matrix(1 0 0 -1 0.1201 -706.5371)" id="svg1.collar_x5F_body_2_" r="32.4004" cx="15.1587" gradientUnits="userSpaceOnUse" cy="-763.7056">
		<stop offset="0" style="stop-color:#B0E8FF"/>
		<stop offset="1" style="stop-color:#74AEEE"/>
	</radialGradient>
	<path fill="url(#svg1.collar_x5F_body_2_)" d="M0.5,62.768c0,1.938,1.575,3.494,3.523,3.494   h48.51c1.947,0,3.521-1.559,3.521-3.494c0,0-1.844-6.861-6.525-11.543c-4.815-4.813-11.244-6.146-11.244-6.146   c-1.771,1.655-5.61,2.802-10.063,2.802c-4.453,0-8.292-1.146-10.063-2.802c0,0-5.755,0.586-11.189,6.021   C1.378,56.689,0.5,62.768,0.5,62.768z" id="svg1.collar_x5F_body_1_" stroke="#5491CF"/>
	
		<radialGradient gradientTransform="matrix(1 0 0 -1 0.1201 -706.5371)" id="svg1.collar_x5F_r_2_" r="9.2834" cx="31.5" gradientUnits="userSpaceOnUse" cy="-753.832">
		<stop offset="0" style="stop-color:#80CCFF"/>
		<stop offset="1" style="stop-color:#74AEEE"/>
	</radialGradient>
	<path fill="url(#svg1.collar_x5F_r_2_)" d="M38.159,41.381c0,0-0.574,2.369-3.013,4.441   c-2.108,1.795-5.783,2.072-5.783,2.072l3.974,6.217c0,0,2.957-1.637,5.009-3.848c1.922-2.072,1.37-5.479,1.37-5.479L38.159,41.381z   " id="svg1.collar_x5F_r_1_" stroke="#5491CF"/>
	
		<radialGradient gradientTransform="matrix(1 0 0 -1 0.1201 -706.5371)" id="svg1.collar_x5F_l_2_" r="9.2837" cx="19.1377" gradientUnits="userSpaceOnUse" cy="-753.873">
		<stop offset="0" style="stop-color:#80CCFF"/>
		<stop offset="1" style="stop-color:#74AEEE"/>
	</radialGradient>
	<path fill="url(#svg1.collar_x5F_l_2_)" d="M18.63,41.422c0,0,0.576,2.369,3.012,4.441   c2.109,1.793,5.785,2.072,5.785,2.072l-3.974,6.217c0,0-2.957-1.637-5.007-3.85c-1.922-2.072-1.37-5.48-1.37-5.48L18.63,41.422z" id="svg1.collar_x5F_l_1_" stroke="#5491CF"/>
	
		<radialGradient gradientTransform="matrix(1 0 0 -1 0.04 66.1543)" id="svg1.Knob2_2_" r="0.9669" cx="27.8872" gradientUnits="userSpaceOnUse" cy="9.9414">
		<stop offset="0" style="stop-color:#80CCFF"/>
		<stop offset="1" style="stop-color:#74AEEE"/>
	</radialGradient>
	<circle fill="url(#svg1.Knob2_2_)" r="0.584" id="svg1.Knob2_1_" cx="28.258" cy="56.254" stroke="#5491CF"/>
	
		<radialGradient gradientTransform="matrix(1 0 0 -1 0.04 66.1543)" id="svg1.Knob1_2_" r="0.9669" cx="27.9253" gradientUnits="userSpaceOnUse" cy="3.6973">
		<stop offset="0" style="stop-color:#80CCFF"/>
		<stop offset="1" style="stop-color:#74AEEE"/>
	</radialGradient>
	<circle fill="url(#svg1.Knob1_2_)" r="0.584" id="svg1.Knob1_1_" cx="28.296" cy="62.499" stroke="#5491CF"/>
</g>
</svg>
      </g>
    </g>
    <g stroke-linecap="butt" transform="matrix(2,0,0,2,-718,-582)" fill="white" text-rendering="geometricPrecision" shape-rendering="geometricPrecision" stroke="white" stroke-miterlimit="1.45">
      <path fill="none" d="M597 339 L821 339" clip-path="url(#clipPath2)"/>
      <path d="M589 339 L601 344 L598 339 L601 334 Z" clip-path="url(#clipPath2)" stroke="none"/>
      <path d="M829 339 L817 334 L820 339 L817 344 Z" clip-path="url(#clipPath2)" stroke="none"/>
      <text x="627.165" xml:space="preserve" y="313.5352" clip-path="url(#clipPath2)" font-family="sans-serif" stroke="none">Gossip and failure detection</text>
      <path fill="none" d="M987 339 L1175 339" clip-path="url(#clipPath2)"/>
      <path d="M979 339 L991 344 L988 339 L991 334 Z" clip-path="url(#clipPath2)" stroke="none"/>
      <path d="M1183 339 L1171 334 L1174 339 L1171 344 Z" clip-path="url(#clipPath2)" stroke="none"/>
      <text x="999.165" xml:space="preserve" y="313.5352" clip-path="url(#clipPath2)" font-family="sans-serif" stroke="none">Gossip and failure detection</text>
      <path fill="none" d="M467.7355 354.0186 L467.7355 457.9609" clip-path="url(#clipPath2)"/>
      <path d="M467.7355 465.9609 L472.7355 453.9609 L467.7355 456.9609 L462.7355 453.9609 Z" clip-path="url(#clipPath2)" stroke="none"/>
      <text x="369.2482" xml:space="preserve" y="414.5352" clip-path="url(#clipPath2)" font-family="sans-serif" stroke="none">Healthcheck</text>
      <path fill="none" d="M514 466 L514 361.9788" clip-path="url(#clipPath2)"/>
      <path d="M514 353.9788 L509 365.9788 L514 362.9788 L519 365.9788 Z" clip-path="url(#clipPath2)" stroke="none"/>
      <text x="552.2871" xml:space="preserve" y="407.4688" clip-path="url(#clipPath2)" font-family="sans-serif" stroke="none">Register</text>
      <text x="542.1328" xml:space="preserve" y="421.6016" clip-path="url(#clipPath2)" font-family="sans-serif" stroke="none">DNS Entries</text>
      <path fill="none" d="M862.3288 354.0021 L862.3288 458.0302" clip-path="url(#clipPath2)"/>
      <path d="M862.3288 466.0302 L867.3288 454.0302 L862.3288 457.0302 L857.3288 454.0302 Z" clip-path="url(#clipPath2)" stroke="none"/>
      <text x="764.8415" xml:space="preserve" y="414.5352" clip-path="url(#clipPath2)" font-family="sans-serif" stroke="none">Healthcheck</text>
      <path fill="none" d="M904 466 L904 362" clip-path="url(#clipPath2)"/>
      <path d="M904 354 L899 366 L904 363 L909 366 Z" clip-path="url(#clipPath2)" stroke="none"/>
      <text x="941.2871" xml:space="preserve" y="404.4688" clip-path="url(#clipPath2)" font-family="sans-serif" stroke="none">Register</text>
      <text x="931.1328" xml:space="preserve" y="418.6016" clip-path="url(#clipPath2)" font-family="sans-serif" stroke="none">DNS Entries</text>
      <path fill="none" d="M1217.076 354.0029 L1217.076 464.9944" clip-path="url(#clipPath2)"/>
      <path d="M1217.076 472.9944 L1222.076 460.9944 L1217.076 463.9944 L1212.076 460.9944 Z" clip-path="url(#clipPath2)" stroke="none"/>
      <text x="1114.5887" xml:space="preserve" y="420.0352" clip-path="url(#clipPath2)" font-family="sans-serif" stroke="none">Healthcheck</text>
      <path fill="none" d="M1258 473 L1258 362" clip-path="url(#clipPath2)"/>
      <path d="M1258 354 L1253 366 L1258 363 L1263 366 Z" clip-path="url(#clipPath2)" stroke="none"/>
      <text x="1306.2871" xml:space="preserve" y="404.9688" clip-path="url(#clipPath2)" font-family="sans-serif" stroke="none">Register</text>
      <text x="1296.1328" xml:space="preserve" y="419.1016" clip-path="url(#clipPath2)" font-family="sans-serif" stroke="none">DNS Entries</text>
      <path fill="none" d="M827.1035 707.0123 L541.2667 500.6823" clip-path="url(#clipPath2)"/>
      <path d="M534.7801 496 L541.5835 507.0776 L542.0775 501.2676 L547.4364 498.9694 Z" clip-path="url(#clipPath2)" stroke="none"/>
      <text x="687.4612" xml:space="preserve" y="600.906" clip-path="url(#clipPath2)" font-family="sans-serif" stroke="none">Requete DNS</text>
      <path fill="none" d="M885.7308 707.0286 L902.1431 503.974" clip-path="url(#clipPath2)"/>
      <path d="M902.7876 496 L896.837 507.5582 L902.0625 504.9707 L906.8046 508.3638 Z" clip-path="url(#clipPath2)" stroke="none"/>
      <text x="921.7351" xml:space="preserve" y="604.0352" clip-path="url(#clipPath2)" font-family="sans-serif" stroke="none">Requete DNS</text>
      <path fill="none" d="M940.5072 706.9897 L1229.6675 507.5423" clip-path="url(#clipPath2)"/>
      <path d="M1236.2529 503 L1223.5359 505.6975 L1228.8444 508.11 L1229.2137 513.9293 Z" clip-path="url(#clipPath2)" stroke="none"/>
      <text x="1095.8816" xml:space="preserve" y="614.8496" clip-path="url(#clipPath2)" font-family="sans-serif" stroke="none">Requete DNS</text>
      <path fill="none" d="M417.3337 582.2894 L494.1614 501.7874" clip-path="url(#clipPath2)" stroke="rgb(153,204,255)"/>
      <path fill="rgb(153,204,255)" d="M499.6847 496 L487.7827 501.229 L493.471 502.5108 L495.0169 508.1331 Z" clip-path="url(#clipPath2)" stroke="none"/>
      <text x="463.9059" y="552.2932" clip-path="url(#clipPath2)" fill="rgb(153,204,255)" font-family="sans-serif" stroke="none" xml:space="preserve">Appel API</text>
      <path fill="none" d="M421.963 596.0208 L845.7184 494.9068" clip-path="url(#clipPath2)" stroke="rgb(153,204,255)"/>
      <path fill="rgb(153,204,255)" d="M853.5 493.05 L840.6672 490.9717 L844.7458 495.1389 L842.9882 500.6986 Z" clip-path="url(#clipPath2)" stroke="none"/>
      <path fill="none" d="M422.3048 598.4207 L1199.569 495.7205" clip-path="url(#clipPath2)" stroke="rgb(153,204,255)"/>
      <path fill="rgb(153,204,255)" d="M1207.5 494.6726 L1194.9485 491.2876 L1198.5775 495.8515 L1196.2584 501.2014 Z" clip-path="url(#clipPath2)" stroke="none"/>
    </g>
  </g>
</svg>
