<?xml version="1.0" encoding="UTF-8"?><svg xmlns="http://www.w3.org/2000/svg" xmlns:xlink="http://www.w3.org/1999/xlink" fill-opacity="1" color-rendering="auto" color-interpolation="auto" text-rendering="auto" stroke="black" stroke-linecap="square" width="3496" stroke-miterlimit="10" shape-rendering="auto" stroke-opacity="1" fill="black" stroke-dasharray="none" font-weight="normal" stroke-width="1" height="1494" font-family="'Dialog'" font-style="normal" stroke-linejoin="miter" font-size="12px" stroke-dashoffset="0" image-rendering="auto">
  <!--Generated by ySVG 2.5-->
  <defs id="genericDefs"/>
  <g>
    <defs id="defs1">
      <clipPath clipPathUnits="userSpaceOnUse" id="clipPath1">
        <path d="M0 0 L3496 0 L3496 1494 L0 1494 L0 0 Z"/>
      </clipPath>
      <clipPath clipPathUnits="userSpaceOnUse" id="clipPath2">
        <path d="M-260 75 L1488 75 L1488 822 L-260 822 L-260 75 Z"/>
      </clipPath>
      <clipPath clipPathUnits="userSpaceOnUse" id="clipPath3">
        <path d="M-916.2193 -646.3806 L833.6222 -646.3806 L833.6222 80.6482 L-916.2193 80.6482 L-916.2193 -646.3806 Z"/>
      </clipPath>
      <clipPath clipPathUnits="userSpaceOnUse" id="clipPath4">
        <path d="M-247.1711 -645.9968 L1502.6703 -645.9968 L1502.6703 80.6403 L-247.1711 80.6403 L-247.1711 -645.9968 Z"/>
      </clipPath>
    </defs>
    <g fill="rgb(88,88,88)" text-rendering="geometricPrecision" shape-rendering="geometricPrecision" transform="scale(2,2) translate(260,-75)" stroke="rgb(88,88,88)">
      <rect x="-260" width="1748" height="747" y="75" clip-path="url(#clipPath2)" stroke="none"/>
    </g>
    <g transform="matrix(2,0,0,2,520,-150)" fill-opacity="0.5176" fill="rgb(202,236,255)" text-rendering="geometricPrecision" shape-rendering="geometricPrecision" stroke="rgb(202,236,255)" stroke-opacity="0.5176">
      <rect x="-87.8119" y="83.334" clip-path="url(#clipPath2)" width="426.3702" rx="4" ry="4" height="421.666" stroke="none"/>
    </g>
    <g fill="rgb(153,204,255)" text-rendering="geometricPrecision" shape-rendering="geometricPrecision" transform="matrix(2,0,0,2,520,-150)" stroke="rgb(153,204,255)">
      <rect x="-87.8119" width="426.3702" height="21.666" y="83.334" clip-path="url(#clipPath2)" stroke="none"/>
    </g>
    <g font-size="15px" stroke-linecap="butt" transform="matrix(2,0,0,2,520,-150)" text-rendering="geometricPrecision" font-family="sans-serif" shape-rendering="geometricPrecision" stroke-miterlimit="1.45">
      <text x="204.6418" xml:space="preserve" y="99.8359" clip-path="url(#clipPath2)" stroke="none">Machine DC Site 1</text>
    </g>
    <g stroke-linecap="round" transform="matrix(2,0,0,2,520,-150)" stroke-dashoffset="2" fill="rgb(102,102,153)" text-rendering="geometricPrecision" shape-rendering="geometricPrecision" stroke-dasharray="0,4" stroke="rgb(102,102,153)" stroke-miterlimit="1.45">
      <rect x="-87.8119" y="83.334" clip-path="url(#clipPath2)" fill="none" width="426.3702" rx="4" ry="4" height="421.666"/>
    </g>
    <g fill="rgb(204,153,255)" text-rendering="geometricPrecision" shape-rendering="geometricPrecision" transform="matrix(2,0,0,2,520,-150)" stroke="rgb(204,153,255)">
      <circle r="40.5" clip-path="url(#clipPath2)" cx="91.6881" cy="160.5" stroke="none"/>
    </g>
    <g text-rendering="geometricPrecision" stroke-miterlimit="1.45" shape-rendering="geometricPrecision" transform="matrix(2,0,0,2,520,-150)" stroke-linecap="butt">
      <circle fill="none" r="40.5" clip-path="url(#clipPath2)" cx="91.6881" cy="160.5"/>
      <text x="71.6109" xml:space="preserve" y="165.0352" clip-path="url(#clipPath2)" font-family="sans-serif" stroke="none">Consul</text>
    </g>
    <g fill="rgb(255,204,153)" text-rendering="geometricPrecision" shape-rendering="geometricPrecision" transform="matrix(2,0,0,2,520,-150)" stroke="rgb(255,204,153)">
      <rect x="-72.8119" y="291" clip-path="url(#clipPath2)" width="176" rx="4" ry="4" height="30" stroke="none"/>
    </g>
    <g text-rendering="geometricPrecision" stroke-miterlimit="1.45" shape-rendering="geometricPrecision" transform="matrix(2,0,0,2,520,-150)" stroke-linecap="butt">
      <rect x="-72.8119" y="291" clip-path="url(#clipPath2)" fill="none" width="176" rx="4" ry="4" height="30"/>
      <text x="-43.1801" xml:space="preserve" y="303.4688" clip-path="url(#clipPath2)" font-family="sans-serif" stroke="none">Gsloc Control-Plane</text>
      <text x="-62.1352" xml:space="preserve" y="317.6016" clip-path="url(#clipPath2)" font-family="sans-serif" stroke="none">(API, HealthCheck, Consul)</text>
    </g>
    <g fill="rgb(255,204,153)" text-rendering="geometricPrecision" shape-rendering="geometricPrecision" transform="matrix(2,0,0,2,520,-150)" stroke="rgb(255,204,153)">
      <rect x="103.1881" y="291" clip-path="url(#clipPath2)" width="144" rx="4" ry="4" height="30" stroke="none"/>
    </g>
    <g text-rendering="geometricPrecision" stroke-miterlimit="1.45" shape-rendering="geometricPrecision" transform="matrix(2,0,0,2,520,-150)" stroke-linecap="butt">
      <rect x="103.1881" y="291" clip-path="url(#clipPath2)" fill="none" width="144" rx="4" ry="4" height="30"/>
      <text x="125.1343" xml:space="preserve" y="303.4688" clip-path="url(#clipPath2)" font-family="sans-serif" stroke="none">Gsloc Data-Plane</text>
      <text x="135.5728" xml:space="preserve" y="317.6016" clip-path="url(#clipPath2)" font-family="sans-serif" stroke="none">(Serveur DNS)</text>
    </g>
    <g fill="rgb(153,204,255)" text-rendering="geometricPrecision" shape-rendering="geometricPrecision" transform="matrix(2,0,0,2,520,-150)" stroke="rgb(153,204,255)">
      <path d="M123.1881 415.7544 L153.6498 385 L196.7263 385 L227.1881 415.7544 L227.1881 459.2456 L196.7263 490 L153.6498 490 L123.1881 459.2456 Z" fill-rule="evenodd" clip-path="url(#clipPath2)" stroke="none"/>
    </g>
    <g text-rendering="geometricPrecision" stroke-miterlimit="1.45" shape-rendering="geometricPrecision" transform="matrix(2,0,0,2,520,-150)" stroke-linecap="butt">
      <path fill="none" d="M123.1881 415.7544 L153.6498 385 L196.7263 385 L227.1881 415.7544 L227.1881 459.2456 L196.7263 490 L153.6498 490 L123.1881 459.2456 Z" fill-rule="evenodd" clip-path="url(#clipPath2)"/>
      <text x="153.0982" xml:space="preserve" y="434.9688" clip-path="url(#clipPath2)" font-family="sans-serif" stroke="none">Dnsdist</text>
      <text x="148.5191" xml:space="preserve" y="449.1016" clip-path="url(#clipPath2)" font-family="sans-serif" stroke="none">(security)</text>
      <path fill="none" d="M15.1881 282.974 L15.1881 160.5 L43.1881 160.5" clip-path="url(#clipPath2)" stroke="white"/>
      <path fill="white" d="M15.1881 290.974 L20.1881 278.974 L15.1881 281.974 L10.1881 278.974 Z" clip-path="url(#clipPath2)" stroke="none"/>
      <path fill="white" d="M51.1881 160.5 L39.1881 155.5 L42.1881 160.5 L39.1881 165.5 Z" clip-path="url(#clipPath2)" stroke="none"/>
      <text x="-83.2221" xml:space="preserve" y="196.2695" clip-path="url(#clipPath2)" font-family="sans-serif" stroke="none">- Read And</text>
      <text x="-83.2221" xml:space="preserve" y="210.4023" clip-path="url(#clipPath2)" font-family="sans-serif" stroke="none">   Write Service</text>
      <text x="-83.2221" xml:space="preserve" y="224.5352" clip-path="url(#clipPath2)" font-family="sans-serif" stroke="none">- Store In KV</text>
      <text x="-83.2221" xml:space="preserve" y="238.668" clip-path="url(#clipPath2)" font-family="sans-serif" stroke="none">- healthcheck</text>
      <text x="-83.2221" xml:space="preserve" y="252.8008" clip-path="url(#clipPath2)" font-family="sans-serif" stroke="none">   Orchestration</text>
      <path fill="none" d="M175.188 290.974 L175.188 160.5 L140.188 160.5" clip-path="url(#clipPath2)" stroke="white"/>
      <path fill="white" d="M132.188 160.5 L144.188 165.5 L141.188 160.5 L144.188 155.5 Z" clip-path="url(#clipPath2)" stroke="none"/>
      <text x="187.7193" xml:space="preserve" y="239.5352" clip-path="url(#clipPath2)" font-family="sans-serif" stroke="none">Read Services</text>
      <path fill="none" d="M175.188 385.0092 L175.188 329.0071" clip-path="url(#clipPath2)" stroke="white"/>
      <path fill="white" d="M175.188 321.0071 L170.188 333.0071 L175.188 330.0071 L180.188 333.0071 Z" clip-path="url(#clipPath2)" stroke="none"/>
      <text x="186.6174" xml:space="preserve" y="346.4758" clip-path="url(#clipPath2)" font-family="sans-serif" stroke="none">Forward Request</text>
      <text x="186.6174" xml:space="preserve" y="360.6086" clip-path="url(#clipPath2)" font-family="sans-serif" stroke="none">With edns client subenet </text>
      <text x="186.6174" xml:space="preserve" y="374.7414" clip-path="url(#clipPath2)" font-family="sans-serif" stroke="none">enabled</text>
    </g>
    <g transform="matrix(2,0,0,2,520,-150)" fill-opacity="0.5176" fill="rgb(202,236,255)" text-rendering="geometricPrecision" shape-rendering="geometricPrecision" stroke="rgb(202,236,255)" stroke-opacity="0.5176">
      <rect x="479.676" y="83.334" clip-path="url(#clipPath2)" width="426.3702" rx="4" ry="4" height="421.666" stroke="none"/>
    </g>
    <g fill="rgb(153,204,255)" text-rendering="geometricPrecision" shape-rendering="geometricPrecision" transform="matrix(2,0,0,2,520,-150)" stroke="rgb(153,204,255)">
      <rect x="479.676" width="426.3702" height="21.666" y="83.334" clip-path="url(#clipPath2)" stroke="none"/>
    </g>
    <g font-size="15px" stroke-linecap="butt" transform="matrix(2,0,0,2,520,-150)" text-rendering="geometricPrecision" font-family="sans-serif" shape-rendering="geometricPrecision" stroke-miterlimit="1.45">
      <text x="772.1298" xml:space="preserve" y="99.8359" clip-path="url(#clipPath2)" stroke="none">Machine DC Site 2</text>
    </g>
    <g stroke-linecap="round" transform="matrix(2,0,0,2,520,-150)" stroke-dashoffset="2" fill="rgb(102,102,153)" text-rendering="geometricPrecision" shape-rendering="geometricPrecision" stroke-dasharray="0,4" stroke="rgb(102,102,153)" stroke-miterlimit="1.45">
      <rect x="479.676" y="83.334" clip-path="url(#clipPath2)" fill="none" width="426.3702" rx="4" ry="4" height="421.666"/>
    </g>
    <g fill="rgb(204,153,255)" text-rendering="geometricPrecision" shape-rendering="geometricPrecision" transform="matrix(2,0,0,2,520,-150)" stroke="rgb(204,153,255)">
      <circle r="40.5" clip-path="url(#clipPath2)" cx="659.176" cy="160.5" stroke="none"/>
    </g>
    <g text-rendering="geometricPrecision" stroke-miterlimit="1.45" shape-rendering="geometricPrecision" transform="matrix(2,0,0,2,520,-150)" stroke-linecap="butt">
      <circle fill="none" r="40.5" clip-path="url(#clipPath2)" cx="659.176" cy="160.5"/>
      <text x="639.0989" xml:space="preserve" y="165.0352" clip-path="url(#clipPath2)" font-family="sans-serif" stroke="none">Consul</text>
    </g>
    <g fill="rgb(255,204,153)" text-rendering="geometricPrecision" shape-rendering="geometricPrecision" transform="matrix(2,0,0,2,520,-150)" stroke="rgb(255,204,153)">
      <rect x="494.676" y="291" clip-path="url(#clipPath2)" width="176" rx="4" ry="4" height="30" stroke="none"/>
    </g>
    <g text-rendering="geometricPrecision" stroke-miterlimit="1.45" shape-rendering="geometricPrecision" transform="matrix(2,0,0,2,520,-150)" stroke-linecap="butt">
      <rect x="494.676" y="291" clip-path="url(#clipPath2)" fill="none" width="176" rx="4" ry="4" height="30"/>
      <text x="524.3079" xml:space="preserve" y="303.4688" clip-path="url(#clipPath2)" font-family="sans-serif" stroke="none">Gsloc Control-Plane</text>
      <text x="505.3528" xml:space="preserve" y="317.6016" clip-path="url(#clipPath2)" font-family="sans-serif" stroke="none">(API, HealthCheck, Consul)</text>
    </g>
    <g fill="rgb(255,204,153)" text-rendering="geometricPrecision" shape-rendering="geometricPrecision" transform="matrix(2,0,0,2,520,-150)" stroke="rgb(255,204,153)">
      <rect x="670.676" y="291" clip-path="url(#clipPath2)" width="144" rx="4" ry="4" height="30" stroke="none"/>
    </g>
    <g text-rendering="geometricPrecision" stroke-miterlimit="1.45" shape-rendering="geometricPrecision" transform="matrix(2,0,0,2,520,-150)" stroke-linecap="butt">
      <rect x="670.676" y="291" clip-path="url(#clipPath2)" fill="none" width="144" rx="4" ry="4" height="30"/>
      <text x="692.6223" xml:space="preserve" y="303.4688" clip-path="url(#clipPath2)" font-family="sans-serif" stroke="none">Gsloc Data-Plane</text>
      <text x="703.0608" xml:space="preserve" y="317.6016" clip-path="url(#clipPath2)" font-family="sans-serif" stroke="none">(Serveur DNS)</text>
    </g>
    <g fill="rgb(153,204,255)" text-rendering="geometricPrecision" shape-rendering="geometricPrecision" transform="matrix(2,0,0,2,520,-150)" stroke="rgb(153,204,255)">
      <path d="M690.6757 415.7537 L721.1365 384.9999 L764.2146 384.9999 L794.6755 415.7537 L794.6755 459.2462 L764.2146 490 L721.1365 490 L690.6757 459.2462 Z" fill-rule="evenodd" clip-path="url(#clipPath2)" stroke="none"/>
    </g>
    <g text-rendering="geometricPrecision" stroke-miterlimit="1.45" shape-rendering="geometricPrecision" transform="matrix(2,0,0,2,520,-150)" stroke-linecap="butt">
      <path fill="none" d="M690.6757 415.7537 L721.1365 384.9999 L764.2146 384.9999 L794.6755 415.7537 L794.6755 459.2462 L764.2146 490 L721.1365 490 L690.6757 459.2462 Z" fill-rule="evenodd" clip-path="url(#clipPath2)"/>
      <text x="720.5862" xml:space="preserve" y="434.9688" clip-path="url(#clipPath2)" font-family="sans-serif" stroke="none">Dnsdist</text>
      <text x="716.0071" xml:space="preserve" y="449.1016" clip-path="url(#clipPath2)" font-family="sans-serif" stroke="none">(security)</text>
      <path fill="none" d="M138.77 142.0618 L612.1149 142.0618" stroke-width="4" clip-path="url(#clipPath2)" stroke="red"/>
      <path fill="red" d="M127.77 142.0618 L144.27 148.9368 L140.145 142.0618 L144.27 135.1868 Z" stroke-width="4" clip-path="url(#clipPath2)" stroke="none"/>
      <path fill="red" d="M623.1149 142.0618 L606.6149 135.1868 L610.7399 142.0618 L606.6149 148.9368 Z" stroke-width="4" clip-path="url(#clipPath2)" stroke="none"/>
      <text x="343.833" y="125.5381" clip-path="url(#clipPath2)" fill="white" font-family="sans-serif" stroke="none" xml:space="preserve">Gossip And Failover</text>
      <path fill="none" d="M582.676 282.974 L582.676 160.5 L610.676 160.5" clip-path="url(#clipPath2)" stroke="white"/>
      <path fill="white" d="M582.676 290.974 L587.676 278.974 L582.676 281.974 L577.676 278.974 Z" clip-path="url(#clipPath2)" stroke="none"/>
      <path fill="white" d="M618.676 160.5 L606.676 155.5 L609.676 160.5 L606.676 165.5 Z" clip-path="url(#clipPath2)" stroke="none"/>
      <text x="484.2659" xml:space="preserve" y="196.2695" clip-path="url(#clipPath2)" font-family="sans-serif" stroke="none">- Read And</text>
      <text x="484.2659" xml:space="preserve" y="210.4023" clip-path="url(#clipPath2)" font-family="sans-serif" stroke="none">   Write Service</text>
      <text x="484.2659" xml:space="preserve" y="224.5352" clip-path="url(#clipPath2)" font-family="sans-serif" stroke="none">- Store In KV</text>
      <text x="484.2659" xml:space="preserve" y="238.668" clip-path="url(#clipPath2)" font-family="sans-serif" stroke="none">- healthcheck</text>
      <text x="484.2659" xml:space="preserve" y="252.8008" clip-path="url(#clipPath2)" font-family="sans-serif" stroke="none">   Orchestration</text>
      <path fill="none" d="M742.676 290.974 L742.676 160.5 L707.676 160.5" clip-path="url(#clipPath2)" stroke="white"/>
      <path fill="white" d="M699.676 160.5 L711.676 165.5 L708.676 160.5 L711.676 155.5 Z" clip-path="url(#clipPath2)" stroke="none"/>
      <text x="755.2073" xml:space="preserve" y="239.5352" clip-path="url(#clipPath2)" font-family="sans-serif" stroke="none">Read Services</text>
      <path fill="none" d="M742.676 385.0092 L742.676 329.0071" clip-path="url(#clipPath2)" stroke="white"/>
      <path fill="white" d="M742.676 321.0071 L737.676 333.0071 L742.676 330.0071 L747.676 333.0071 Z" clip-path="url(#clipPath2)" stroke="none"/>
      <text x="755.5153" xml:space="preserve" y="342.9415" clip-path="url(#clipPath2)" font-family="sans-serif" stroke="none">Forward Request</text>
      <text x="755.5153" xml:space="preserve" y="357.0743" clip-path="url(#clipPath2)" font-family="sans-serif" stroke="none">With edns client subenet  </text>
      <text x="755.5153" xml:space="preserve" y="371.2071" clip-path="url(#clipPath2)" font-family="sans-serif" stroke="none">enabled</text>
    </g>
    <g transform="matrix(2,0,0,2,520,-150)" fill-opacity="0.5176" fill="rgb(202,236,255)" text-rendering="geometricPrecision" shape-rendering="geometricPrecision" stroke="rgb(202,236,255)" stroke-opacity="0.5176">
      <rect x="1052.8762" y="83.334" clip-path="url(#clipPath2)" width="426.3702" rx="4" ry="4" height="421.666" stroke="none"/>
    </g>
    <g fill="rgb(153,204,255)" text-rendering="geometricPrecision" shape-rendering="geometricPrecision" transform="matrix(2,0,0,2,520,-150)" stroke="rgb(153,204,255)">
      <rect x="1052.8762" width="426.3702" height="21.666" y="83.334" clip-path="url(#clipPath2)" stroke="none"/>
    </g>
    <g font-size="15px" stroke-linecap="butt" transform="matrix(2,0,0,2,520,-150)" text-rendering="geometricPrecision" font-family="sans-serif" shape-rendering="geometricPrecision" stroke-miterlimit="1.45">
      <text x="1345.33" xml:space="preserve" y="99.8359" clip-path="url(#clipPath2)" stroke="none">Machine DC Site 3</text>
    </g>
    <g stroke-linecap="round" transform="matrix(2,0,0,2,520,-150)" stroke-dashoffset="2" fill="rgb(102,102,153)" text-rendering="geometricPrecision" shape-rendering="geometricPrecision" stroke-dasharray="0,4" stroke="rgb(102,102,153)" stroke-miterlimit="1.45">
      <rect x="1052.8762" y="83.334" clip-path="url(#clipPath2)" fill="none" width="426.3702" rx="4" ry="4" height="421.666"/>
    </g>
    <g fill="rgb(204,153,255)" text-rendering="geometricPrecision" shape-rendering="geometricPrecision" transform="matrix(2,0,0,2,520,-150)" stroke="rgb(204,153,255)">
      <circle r="40.5" clip-path="url(#clipPath2)" cx="1232.3762" cy="160.5" stroke="none"/>
    </g>
    <g text-rendering="geometricPrecision" stroke-miterlimit="1.45" shape-rendering="geometricPrecision" transform="matrix(2,0,0,2,520,-150)" stroke-linecap="butt">
      <circle fill="none" r="40.5" clip-path="url(#clipPath2)" cx="1232.3762" cy="160.5"/>
      <text x="1212.2991" xml:space="preserve" y="165.0352" clip-path="url(#clipPath2)" font-family="sans-serif" stroke="none">Consul</text>
    </g>
    <g fill="rgb(255,204,153)" text-rendering="geometricPrecision" shape-rendering="geometricPrecision" transform="matrix(2,0,0,2,520,-150)" stroke="rgb(255,204,153)">
      <rect x="1067.8762" y="291" clip-path="url(#clipPath2)" width="176" rx="4" ry="4" height="30" stroke="none"/>
    </g>
    <g text-rendering="geometricPrecision" stroke-miterlimit="1.45" shape-rendering="geometricPrecision" transform="matrix(2,0,0,2,520,-150)" stroke-linecap="butt">
      <rect x="1067.8762" y="291" clip-path="url(#clipPath2)" fill="none" width="176" rx="4" ry="4" height="30"/>
      <text x="1097.5081" xml:space="preserve" y="303.4688" clip-path="url(#clipPath2)" font-family="sans-serif" stroke="none">Gsloc Control-Plane</text>
      <text x="1078.553" xml:space="preserve" y="317.6016" clip-path="url(#clipPath2)" font-family="sans-serif" stroke="none">(API, HealthCheck, Consul)</text>
    </g>
    <g fill="rgb(255,204,153)" text-rendering="geometricPrecision" shape-rendering="geometricPrecision" transform="matrix(2,0,0,2,520,-150)" stroke="rgb(255,204,153)">
      <rect x="1243.8762" y="291" clip-path="url(#clipPath2)" width="144" rx="4" ry="4" height="30" stroke="none"/>
    </g>
    <g text-rendering="geometricPrecision" stroke-miterlimit="1.45" shape-rendering="geometricPrecision" transform="matrix(2,0,0,2,520,-150)" stroke-linecap="butt">
      <rect x="1243.8762" y="291" clip-path="url(#clipPath2)" fill="none" width="144" rx="4" ry="4" height="30"/>
      <text x="1265.8225" xml:space="preserve" y="303.4688" clip-path="url(#clipPath2)" font-family="sans-serif" stroke="none">Gsloc Data-Plane</text>
      <text x="1276.261" xml:space="preserve" y="317.6016" clip-path="url(#clipPath2)" font-family="sans-serif" stroke="none">(Serveur DNS)</text>
    </g>
    <g fill="rgb(153,204,255)" text-rendering="geometricPrecision" shape-rendering="geometricPrecision" transform="matrix(2,0,0,2,520,-150)" stroke="rgb(153,204,255)">
      <path d="M1263.8767 415.7538 L1294.3376 385 L1337.4159 385 L1367.8767 415.7538 L1367.8767 459.2462 L1337.4159 490 L1294.3376 490 L1263.8767 459.2462 Z" fill-rule="evenodd" clip-path="url(#clipPath2)" stroke="none"/>
    </g>
    <g text-rendering="geometricPrecision" stroke-miterlimit="1.45" shape-rendering="geometricPrecision" transform="matrix(2,0,0,2,520,-150)" stroke-linecap="butt">
      <path fill="none" d="M1263.8767 415.7538 L1294.3376 385 L1337.4159 385 L1367.8767 415.7538 L1367.8767 459.2462 L1337.4159 490 L1294.3376 490 L1263.8767 459.2462 Z" fill-rule="evenodd" clip-path="url(#clipPath2)"/>
      <text x="1293.7864" xml:space="preserve" y="434.9688" clip-path="url(#clipPath2)" font-family="sans-serif" stroke="none">Dnsdist</text>
      <text x="1289.2073" xml:space="preserve" y="449.1016" clip-path="url(#clipPath2)" font-family="sans-serif" stroke="none">(security)</text>
    </g>
    <g text-rendering="geometricPrecision" shape-rendering="geometricPrecision" transform="matrix(1.9979,0,0,2.0549,1830.5102,1328.2729)">
      <g clip-path="url(#clipPath3)">
        <svg xml:space="preserve" opacity="1" writing-mode="lr-tb" stop-color="rgb(0, 0, 0)" shape-rendering="auto" glyph-orientation-horizontal="0deg" color-profile="auto" lighting-color="rgb(255, 255, 255)" color="rgb(0, 0, 0)" font-weight="400" alignment-baseline="auto" font-style="normal" version="1.1" color-interpolation-filters="linearrgb" text-anchor="start" stroke-linecap="butt" color-interpolation="srgb" font-variant="normal" word-spacing="normal" fill-opacity="1" text-rendering="auto" clip-path="none" text-decoration="none" letter-spacing="normal" viewBox="0 0 57 65" glyph-orientation-vertical="auto" display="inline" font-size-adjust="none" overflow="hidden" fill="rgb(0, 0, 0)" font-stretch="normal" stroke-dasharray="none" id="svg1.Ebene_1" stroke-miterlimit="4" stop-opacity="1" color-rendering="auto" font-size="12" pointer-events="visiblepainted" mask="none" direction="ltr" baseline-shift="baseline" enable-background="new 0 0 57 65" fill-rule="nonzero" image-rendering="auto" stroke-dashoffset="0" width="57px" marker-end="none" clip="auto" cursor="auto" stroke="none" filter="none" visibility="visible" kerning="auto" stroke-width="1" font-family="&quot;Arial&quot;,&quot;Helvetica&quot;,sans-serif" flood-opacity="1" clip-rule="nonzero" src="none" height="65px" unicode-bidi="normal" stroke-linejoin="miter" stroke-opacity="1" flood-color="rgb(0, 0, 0)" dominant-baseline="auto" marker-start="none" x="0px" marker-mid="none" y="0px">
<g>
	<polygon fill="#353535" points="44.675,45.684 13.412,50.074    12.502,27.118 43.718,27.745  " stroke="#353535" stroke-linecap="round" stroke-linejoin="round"/>
	
		<radialGradient gradientTransform="matrix(1 0 0 1 0.3203 -3091.7656)" gradientUnits="userSpaceOnUse" r="31.054" cx="27.2832" id="svg1.SVGID_1_" cy="3145.5264" fx="21.2252" fy="3142.2256">
		<stop offset="0" style="stop-color:#B38E5D"/>
		<stop offset="1" style="stop-color:#805126"/>
	</radialGradient>
	<path fill="url(#svg1.SVGID_1_)" d="M49.529,51.225c-4.396-4.396-10.951-5.884-12.063-6.109   V37.8H19.278c0,0,0.038,6.903,0,6.868c0,0-6.874,0.997-12.308,6.432C1.378,56.691,0.5,62.77,0.5,62.77   c0,1.938,1.575,3.492,3.523,3.492h48.51c1.947,0,3.521-1.558,3.521-3.492C56.055,62.768,54.211,55.906,49.529,51.225z" stroke-miterlimit="10" stroke="#5B453B"/>
	
		<radialGradient gradientTransform="matrix(1 0 0 1 0.3203 -3091.7656)" gradientUnits="userSpaceOnUse" r="23.425" cx="27.5835" id="svg1.face_x5F_white_1_" cy="3117.4922" fx="23.0139" fy="3115.0024">
		<stop offset="0" style="stop-color:#B38E5D"/>
		<stop offset="1" style="stop-color:#805126"/>
	</radialGradient>
	<path fill="url(#svg1.face_x5F_white_1_)" id="svg1.face_x5F_white_2_" d="M43.676,23.357   c0.086,10.2-6.738,18.52-15.25,18.586c-8.5,0.068-15.464-8.146-15.55-18.344C12.794,13.4,19.618,5.079,28.123,5.012   C36.627,4.945,43.59,13.158,43.676,23.357z" stroke-miterlimit="10" stroke="#5B453B"/>
	
		<linearGradient gradientTransform="matrix(0.275 0 0 -0.2733 -1752.8849 -3351.7349)" x1="6466.8389" x2="6490.4683" gradientUnits="userSpaceOnUse" y1="-12294.1094" y2="-12387.5586" id="svg1.face_highlight_1_">
		<stop offset="0" style="stop-color:#FFFFFF;stop-opacity:0.42"/>
		<stop offset="1" style="stop-color:#FFFFFF;stop-opacity:0.12"/>
	</linearGradient>
	<path fill="url(#svg1.face_highlight_1_)" id="svg1.face_highlight_2_" d="M27.958,6.333c-6.035,0.047-10.747,4.493-12.787,10.386   c-0.664,1.919-0.294,4.043,0.98,5.629c2.73,3.398,5.729,6.283,9.461,8.088c3.137,1.518,7.535,2.385,11.893,1.247   c2.274-0.592,3.988-2.459,4.375-4.766c0.187-1.094,0.293-2.289,0.283-3.553C42.083,13.952,36.271,6.268,27.958,6.333z"/>
	<path fill="#5C5C5C" d="M17.597,43.835   c-0.413-3.019-0.613-5.013-0.789-7.864c-0.574-9.349,2.886-17.721,2.886-17.721l0.882-2.078l0.94,2.419l1.872-4.956l-0.049,4.553   l1.311-0.749l0.701-1.653L25.715,18l1.055-0.988l2.13-0.729L29.84,17l0.479-2.375l0.834,2.554l1.125-1.024l1.68-0.214l1.07,1.372   l-0.243-4.246l1.883,3.967L37.611,17c0,0,6.029,9.948,3.75,28.426c2.154,0.76,4.479,2.688,6.881,4.648   c0.001-0.002,0.011-0.012,0.011-0.012L44.111,19.38C43.079,12.873,38.752,2.599,28.73,2.648   C5.153,2.568,13.025,42.055,8.945,49.334c-0.007,0.014-0.012,0.025-0.02,0.039C12.292,46.729,15.652,44.346,17.597,43.835z" stroke="#353535" stroke-linecap="round" stroke-linejoin="round"/>
	
		<radialGradient gradientTransform="matrix(0.9852 0 0 -0.9852 -34.4844 -3033.9702)" id="svg1.body_1_" r="32.8445" cx="50.5117" gradientUnits="userSpaceOnUse" cy="-3134.7334">
		<stop offset="0" style="stop-color:#FFC373"/>
		<stop offset="1" style="stop-color:#FFB448"/>
	</radialGradient>
	<path fill="url(#svg1.body_1_)" d="M0.5,62.768c0,1.938,1.575,3.494,3.523,3.494h48.51   c1.947,0,3.521-1.559,3.521-3.494c0,0-1.844-6.861-6.525-11.543c-4.815-4.813-8.244-5.146-8.244-5.146   c-1.444,6.983-8.555,8.786-13.007,8.786s-11.322-2.643-11.941-9.439c0,0-4.559,1.199-9.367,5.674   C1.378,56.689,0.5,62.768,0.5,62.768z" id="svg1.body_9_" stroke="#ED8D00"/>
</g>
</svg>
      </g>
    </g>
    <g text-rendering="geometricPrecision" shape-rendering="geometricPrecision" transform="matrix(1.9979,0,0,2.056,493.822,1328.1997)">
      <g clip-path="url(#clipPath4)">
        <svg xml:space="preserve" opacity="1" writing-mode="lr-tb" stop-color="rgb(0, 0, 0)" shape-rendering="auto" glyph-orientation-horizontal="0deg" color-profile="auto" lighting-color="rgb(255, 255, 255)" color="rgb(0, 0, 0)" font-weight="400" alignment-baseline="auto" font-style="normal" version="1.1" color-interpolation-filters="linearrgb" text-anchor="start" stroke-linecap="butt" color-interpolation="srgb" font-variant="normal" word-spacing="normal" fill-opacity="1" text-rendering="auto" clip-path="none" text-decoration="none" letter-spacing="normal" viewBox="0 0 57 65" glyph-orientation-vertical="auto" display="inline" font-size-adjust="none" overflow="hidden" fill="rgb(0, 0, 0)" font-stretch="normal" stroke-dasharray="none" id="svg2.Ebene_1" stroke-miterlimit="4" stop-opacity="1" color-rendering="auto" font-size="12" pointer-events="visiblepainted" mask="none" direction="ltr" baseline-shift="baseline" enable-background="new 0 0 57 65" fill-rule="nonzero" image-rendering="auto" stroke-dashoffset="0" width="57px" marker-end="none" clip="auto" cursor="auto" stroke="none" filter="none" visibility="visible" kerning="auto" stroke-width="1" font-family="&quot;Arial&quot;,&quot;Helvetica&quot;,sans-serif" flood-opacity="1" clip-rule="nonzero" src="none" height="65px" unicode-bidi="normal" stroke-linejoin="miter" stroke-opacity="1" flood-color="rgb(0, 0, 0)" dominant-baseline="auto" marker-start="none" x="0px" marker-mid="none" y="0px">
<g>
	
		<linearGradient gradientTransform="matrix(1 0 0 1 0.2402 -2319.0742)" x1="26.4199" x2="27.6608" gradientUnits="userSpaceOnUse" y1="2343.0352" y2="2372.8335" id="svg2.SVGID_1_">
		<stop offset="0.2711" style="stop-color:#FFAB4F"/>
		<stop offset="1" style="stop-color:#FFD28F"/>
	</linearGradient>
	<path fill="url(#svg2.SVGID_1_)" d="M49.529,51.225c-4.396-4.396-10.951-5.884-12.063-6.109   V37.8H19.278c0,0,0.038,6.903,0,6.868c0,0-6.874,0.997-12.308,6.432C1.378,56.691,0.5,62.77,0.5,62.77   c0,1.938,1.575,3.492,3.523,3.492h48.51c1.947,0,3.521-1.558,3.521-3.492C56.055,62.768,54.211,55.906,49.529,51.225z" stroke-miterlimit="10" stroke="#ED9135"/>
	<path fill="none" d="M45.963,22.823c0.021-0.378,0.051-0.753,0.051-1.137   c0-11.08-7.916-19.062-17.678-19.062c-9.765,0-17.682,7.981-17.682,19.062c0,0.357,0.031,0.705,0.047,1.057   C16.139,21.735,40.396,21.762,45.963,22.823z" stroke-miterlimit="10" stroke="#4B4B4B"/>
	<path fill="#4B4B4B" d="M46.113,31.724c0.24-0.548,0.517-1.453,0.822-2.948c0.305-1.48,0.408-2.426,0.404-3.034l1.266,0.26   c0.023,0.438-0.069,1.52-0.383,3.039c-0.313,1.52-0.65,2.551-0.846,2.943L46.113,31.724z"/>
	<path fill="#4B4B4B" d="M47.816,26.351l0.283,0.058c-0.026,0.497-0.123,1.353-0.365,2.532c-0.242,1.179-0.49,2.004-0.661,2.471   l-0.281-0.058c0.201-0.595,0.413-1.396,0.635-2.477C47.645,27.809,47.768,26.986,47.816,26.351 M46.708,25.102   c0.25,0.052,0.133,1.652-0.263,3.574c-0.387,1.891-0.897,3.389-1.153,3.389c-0.005,0-0.01,0-0.015-0.001l2.269,0.465   c0.004,0.001,0.011,0.001,0.019,0.001c0.256,0,0.768-1.499,1.149-3.389c0.396-1.922,0.519-3.522,0.267-3.574L46.708,25.102   L46.708,25.102z"/>
	
		<linearGradient gradientTransform="matrix(1 0 0 1 0.2402 -2319.0742)" x1="46.4893" x2="40.904" gradientUnits="userSpaceOnUse" y1="2340.873" y2="2363.7446" id="svg2.SVGID_2_">
		<stop offset="0" style="stop-color:#D0D0D0"/>
		<stop offset="0.7289" style="stop-color:#4B4B4B"/>
	</linearGradient>
	<path fill="url(#svg2.SVGID_2_)" d="M42.068,34.141c0.693-1.254,1.312-3.722,1.757-5.894c0.596-2.901,0.829-4.943,0.704-6.108   l3.228,0.662c0.108,0.562,0.022,2.665-0.685,6.113c-0.707,3.447-1.457,5.413-1.78,5.887L42.068,34.141z"/>
	<path fill="#4B4B4B" d="M45.076,22.761l2.22,0.456c0.033,0.838-0.146,2.83-0.713,5.597c-0.565,2.765-1.188,4.667-1.549,5.424   l-2.232-0.459c0.447-1.039,0.957-2.717,1.519-5.431C44.866,25.66,45.07,23.908,45.076,22.761 M43.82,21.483   c0.47,0.096,0.25,3.08-0.485,6.664c-0.724,3.525-1.679,6.319-2.153,6.319c-0.009,0-0.017-0.001-0.021-0.002l4.229,0.867   c0.01,0.002,0.018,0.002,0.021,0.002c0.479,0,1.436-2.793,2.154-6.317c0.73-3.584,0.955-6.568,0.482-6.664L43.82,21.483   L43.82,21.483z"/>
	<path fill="#4B4B4B" d="M9.56,31.984c-0.193-0.393-0.534-1.424-0.846-2.943c-0.312-1.52-0.405-2.602-0.382-3.039l1.266-0.259   c-0.005,0.607,0.101,1.554,0.404,3.034c0.306,1.495,0.583,2.4,0.824,2.948L9.56,31.984z"/>
	<path fill="#4B4B4B" d="M9.121,26.351c0.049,0.635,0.173,1.458,0.392,2.525c0.221,1.081,0.433,1.882,0.634,2.477l-0.281,0.058   c-0.171-0.467-0.419-1.292-0.662-2.471c-0.242-1.179-0.339-2.035-0.365-2.532L9.121,26.351 M10.232,25.102l-2.268,0.465   c-0.251,0.052-0.134,1.652,0.261,3.574c0.388,1.89,0.9,3.389,1.155,3.389c0.004,0,0.009,0,0.013-0.001l2.268-0.465   c-0.004,0.001-0.008,0.001-0.013,0.001c-0.255,0-0.768-1.499-1.155-3.389C10.098,26.754,9.981,25.154,10.232,25.102L10.232,25.102z   "/>
	
		<linearGradient gradientTransform="matrix(1 0 0 1 0.2402 -2319.0742)" x1="13.4102" x2="7.7735" gradientUnits="userSpaceOnUse" y1="2340.7666" y2="2363.8494" id="svg2.SVGID_3_">
		<stop offset="0" style="stop-color:#D0D0D0"/>
		<stop offset="0.7289" style="stop-color:#4B4B4B"/>
	</linearGradient>
	<path fill="url(#svg2.SVGID_3_)" d="M11.616,34.801c-0.323-0.474-1.073-2.44-1.781-5.887c-0.708-3.448-0.792-5.551-0.683-6.113   l3.226-0.662c-0.125,1.166,0.11,3.207,0.705,6.108c0.446,2.172,1.062,4.639,1.756,5.894L11.616,34.801z"/>
	<path fill="#4B4B4B" d="M11.833,22.761c0.004,1.147,0.209,2.898,0.761,5.586c0.557,2.714,1.065,4.393,1.512,5.432l-2.232,0.457   c-0.361-0.756-0.981-2.658-1.549-5.423c-0.567-2.767-0.747-4.759-0.713-5.597L11.833,22.761 M13.088,21.483l-4.229,0.868   c-0.469,0.096-0.249,3.08,0.486,6.664c0.723,3.524,1.678,6.317,2.154,6.317c0.008,0,0.016,0,0.023-0.002l4.228-0.867   c-0.008,0.001-0.016,0.002-0.023,0.002c-0.475,0-1.431-2.794-2.154-6.319C12.838,24.563,12.619,21.579,13.088,21.483L13.088,21.483   z"/>
	
		<radialGradient gradientTransform="matrix(1 0 0 1 0.2402 -2319.0742)" gradientUnits="userSpaceOnUse" r="23.425" cx="27.6626" id="svg2.face_x5F_white_1_" cy="2344.8008" fx="23.093" fy="2342.311">
		<stop offset="0" style="stop-color:#FFD28F"/>
		<stop offset="1" style="stop-color:#FFAB4F"/>
	</radialGradient>
	<path fill="url(#svg2.face_x5F_white_1_)" id="svg2.face_x5F_white_3_" d="M43.676,23.357   c0.086,10.2-6.738,18.52-15.249,18.586c-8.5,0.068-15.464-8.146-15.55-18.344C12.794,13.4,19.618,5.079,28.123,5.012   C36.627,4.945,43.59,13.158,43.676,23.357z" stroke-miterlimit="10" stroke="#ED9135"/>
	
		<linearGradient gradientTransform="matrix(0.275 0 0 -0.2733 -1365.09 -2579.0444)" x1="5056.6748" x2="5080.3042" gradientUnits="userSpaceOnUse" y1="-9466.8486" y2="-9560.2988" id="svg2.face_highlight_1_">
		<stop offset="0" style="stop-color:#FFFFFF;stop-opacity:0.24"/>
		<stop offset="1" style="stop-color:#FFFFFF;stop-opacity:0.16"/>
	</linearGradient>
	<path fill="url(#svg2.face_highlight_1_)" id="svg2.face_highlight_3_" d="M27.958,6.333c-6.035,0.047-10.747,4.493-12.787,10.386   c-0.664,1.919-0.294,4.043,0.98,5.629c2.73,3.398,5.729,6.283,9.461,8.088c3.137,1.518,7.535,2.385,11.893,1.247   c2.274-0.592,3.988-2.459,4.375-4.766c0.185-1.094,0.293-2.289,0.283-3.553C42.083,13.952,36.271,6.268,27.958,6.333z"/>
	<path fill="#D0D0D0" d="M28.02,31.921   c-6.78,0-6.717,3.708-6.717,3.708c0,8.133,2.985,8.788,6.955,8.788c4.243,0,6.792-0.926,6.792-8.595   C35.051,35.822,35.881,31.921,28.02,31.921z M23.989,35.678c0-0.556,1.838-1.005,4.107-1.005c2.27,0,4.107,0.449,4.107,1.005   C32.204,36.232,23.989,36.232,23.989,35.678z" stroke-width="0.9271" stroke="#9B9B9B" stroke-linecap="round" stroke-linejoin="round"/>
	<path fill="none" d="M24.028,37.799c-2.04,0.127-7.98-2.511-10.435-3.941   c-1.519-0.885-3.79-2.722-4.19-3.231" stroke-miterlimit="10" stroke="#4B4B4B"/>
	<path fill="#4B4B4B" d="M28.941,37.799c0,0.292-2.085,0.529-3.425,0.529   c-1.339,0-2.425-0.237-2.425-0.529s1.086-0.529,2.425-0.529C26.856,37.27,28.941,37.507,28.941,37.799z" stroke-miterlimit="10" stroke="#4B4B4B"/>
	<path fill="#656565" d="M15.038,26.653   c0.145,2.05,3.468,2.593,6.477,2.56c2.298-0.026,3.25-0.889,4.746-2.685c2.539-3.05-0.767-3.715-4.817-3.67   C15.984,22.919,14.777,22.933,15.038,26.653z" stroke-miterlimit="10" stroke="#4B4B4B" stroke-linejoin="round"/>
	<path fill="#656565" d="M41.116,26.653   c-0.146,2.05-3.47,2.593-6.478,2.56c-2.299-0.026-3.252-0.889-4.746-2.685c-2.538-3.05,0.769-3.715,4.816-3.67   C40.17,22.919,41.377,22.933,41.116,26.653z" stroke-miterlimit="10" stroke="#4B4B4B" stroke-linejoin="round"/>
	<path fill="none" d="M27.453,24.375   c0,0,0.604-0.469,1.305,0" stroke-miterlimit="10" stroke="#4B4B4B" stroke-linecap="round" stroke-linejoin="round"/>
	
		<line stroke-linecap="round" fill="none" x1="41.727" x2="41.844" y1="24.592" y2="25.375" stroke="#4B4B4B" stroke-miterlimit="10"/>
	
		<line stroke-linecap="round" fill="none" x1="42.165" x2="44.027" y1="24.938" y2="24.938" stroke="#4B4B4B" stroke-miterlimit="10"/>
	
		<line stroke-linecap="round" fill="none" x1="14.374" x2="14.257" y1="24.592" y2="25.375" stroke="#4B4B4B" stroke-miterlimit="10"/>
	
		<line stroke-linecap="round" fill="none" x1="13.937" x2="12.073" y1="24.938" y2="24.938" stroke="#4B4B4B" stroke-miterlimit="10"/>
	
		<radialGradient gradientTransform="matrix(1 0 0 -1 0.04 64.1543)" gradientUnits="userSpaceOnUse" r="28.5025" cx="27.2378" id="svg2.body_1_" cy="5.9858" fx="14.869" fy="3.6317">
		<stop offset="0" style="stop-color:#B2B2B2"/>
		<stop offset="1" style="stop-color:#757473"/>
	</radialGradient>
	<path fill="url(#svg2.body_1_)" d="M0.5,62.768c0,1.938,1.575,3.494,3.523,3.494h48.51   c1.947,0,3.521-1.559,3.521-3.494c0,0-1.844-6.861-6.525-11.543c-4.815-4.813-11.244-6.146-11.244-6.146   c-1.771,1.655-5.61,2.802-10.063,2.802c-4.453,0-8.292-1.146-10.063-2.802c0,0-5.755,0.586-11.189,6.021   C1.378,56.689,0.5,62.768,0.5,62.768z" id="svg2.body_9_" stroke="#4B4B4B"/>
	
		<radialGradient gradientTransform="matrix(1 0 0 -1 0.04 64.1543)" gradientUnits="userSpaceOnUse" r="11.8874" cx="27.9443" id="svg2.turtleneck_1_" cy="16.2813" fx="22.7857" fy="15.2994">
		<stop offset="0" style="stop-color:#B2B2B2"/>
		<stop offset="1" style="stop-color:#757473"/>
	</radialGradient>
	<path fill="url(#svg2.turtleneck_1_)" d="M39.715,44.786l-1.557-3.405c0,0-0.574,2.369-3.012,4.441   c-2.109,1.795-6.785,2.072-6.785,2.072s-4.753-0.356-6.722-2.031c-2.436-2.072-3.012-4.441-3.012-4.441l-1.555,3.404   c0,0-0.552,1.404,1.37,3.479c1.025,1.105,5.203,3.611,9.682,3.582c4.479-0.029,9.264-2.594,10.218-3.623   C40.266,46.191,39.715,44.786,39.715,44.786z" id="svg2.turtleneck_6_" stroke="#4B4B4B"/>
	<path stroke-linecap="round" fill="#9B9B9B" stroke-linejoin="round" d="   M28.277,15.5c5.635,0,10.827,1.416,14.979,3.794c-1.615-8.228-7.795-14.34-15.132-14.282c-7.272,0.057-13.299,6.155-14.846,14.294   C17.434,16.921,22.632,15.5,28.277,15.5z" id="svg2.wh2_1_" stroke="#4B4B4B" stroke-miterlimit="10"/>
	<path stroke-linecap="round" fill="#9B9B9B" stroke-linejoin="round" d="   M28.278,20.808c5.662,0,11.938,0.811,16.391,2.207c-0.11-2.059-0.272-2.826-0.412-3.72c-4.155-2.379-10.345-3.795-15.98-3.795   c-5.644,0-11.842,1.421-16,3.807c-0.228,1.197-0.362,2.436-0.388,3.707C16.343,21.618,22.618,20.808,28.278,20.808z" id="svg2.wh1_1_" stroke="#4B4B4B" stroke-miterlimit="10"/>
</g>
</svg>
      </g>
    </g>
    <g stroke-linecap="butt" transform="matrix(2,0,0,2,520,-150)" fill="red" text-rendering="geometricPrecision" shape-rendering="geometricPrecision" stroke="red" stroke-width="4" stroke-miterlimit="1.45">
      <path fill="none" d="M707.3591 144.4408 L1184.1843 144.4408" clip-path="url(#clipPath2)"/>
      <path d="M696.3591 144.4408 L712.8591 151.3158 L708.7341 144.4408 L712.8591 137.5658 Z" clip-path="url(#clipPath2)" stroke="none"/>
      <path d="M1195.1843 144.4408 L1178.6843 137.5658 L1182.8093 144.4408 L1178.6843 151.3158 Z" clip-path="url(#clipPath2)" stroke="none"/>
    </g>
    <g stroke-linecap="butt" transform="matrix(2,0,0,2,520,-150)" fill="white" text-rendering="geometricPrecision" font-family="sans-serif" shape-rendering="geometricPrecision" stroke="white" stroke-miterlimit="1.45">
      <text x="912.6249" xml:space="preserve" y="126.912" clip-path="url(#clipPath2)" stroke="none">Gossip And Failover</text>
      <path fill="none" d="M1155.8762 282.974 L1155.8762 160.5 L1183.8762 160.5" clip-path="url(#clipPath2)"/>
      <path d="M1155.8762 290.974 L1160.8762 278.974 L1155.8762 281.974 L1150.8762 278.974 Z" clip-path="url(#clipPath2)" stroke="none"/>
      <path d="M1191.8762 160.5 L1179.8762 155.5 L1182.8762 160.5 L1179.8762 165.5 Z" clip-path="url(#clipPath2)" stroke="none"/>
      <text fill="black" x="1057.4661" xml:space="preserve" y="196.2695" clip-path="url(#clipPath2)" stroke="none">- Read And</text>
      <text fill="black" x="1057.4661" xml:space="preserve" y="210.4023" clip-path="url(#clipPath2)" stroke="none">   Write Service</text>
      <text fill="black" x="1057.4661" xml:space="preserve" y="224.5352" clip-path="url(#clipPath2)" stroke="none">- Store In KV</text>
      <text fill="black" x="1057.4661" xml:space="preserve" y="238.668" clip-path="url(#clipPath2)" stroke="none">- healthcheck</text>
      <text fill="black" x="1057.4661" xml:space="preserve" y="252.8008" clip-path="url(#clipPath2)" stroke="none">   Orchestration</text>
      <path fill="none" d="M1315.8762 290.974 L1315.8762 160.5 L1280.8762 160.5" clip-path="url(#clipPath2)"/>
      <path d="M1272.8762 160.5 L1284.8762 165.5 L1281.8762 160.5 L1284.8762 155.5 Z" clip-path="url(#clipPath2)" stroke="none"/>
      <text fill="black" x="1328.4075" xml:space="preserve" y="239.5352" clip-path="url(#clipPath2)" stroke="none">Read Services</text>
      <path fill="none" d="M1315.8762 385.0092 L1315.8762 329.0071" clip-path="url(#clipPath2)"/>
      <path d="M1315.8762 321.0071 L1310.8762 333.0071 L1315.8762 330.0071 L1320.8762 333.0071 Z" clip-path="url(#clipPath2)" stroke="none"/>
      <text fill="black" x="1326.4429" xml:space="preserve" y="342.9415" clip-path="url(#clipPath2)" stroke="none">Forward Request</text>
      <text fill="black" x="1326.4429" xml:space="preserve" y="357.0743" clip-path="url(#clipPath2)" stroke="none">With edns client subenet </text>
      <text fill="black" x="1326.4429" xml:space="preserve" y="371.2071" clip-path="url(#clipPath2)" stroke="none">enabled</text>
      <path fill="none" d="M683.5322 741.2844 L683.5322 548.2838 L742.676 548.2838 L742.676 497.9979" clip-path="url(#clipPath2)"/>
      <path d="M742.676 489.9979 L737.676 501.9979 L742.676 498.9979 L747.676 501.9979 Z" clip-path="url(#clipPath2)" stroke="none"/>
      <text x="640.556" xml:space="preserve" font-size="20px" y="717.9619" clip-path="url(#clipPath2)" stroke="none">DNS Requests</text>
      <path fill="none" d="M702.8889 773.6024 L959.3076 773.6024 L959.3076 437.5 L1255.8596 437.5" clip-path="url(#clipPath2)"/>
      <path d="M1263.8596 437.5 L1251.8596 432.5 L1254.8596 437.5 L1251.8596 442.5 Z" clip-path="url(#clipPath2)" stroke="none"/>
      <path fill="none" d="M664.2158 773.6024 L397.3851 773.6024 L397.3851 437.5 L235.2091 437.5" clip-path="url(#clipPath2)"/>
      <path d="M227.2091 437.5 L239.2091 442.5 L236.2091 437.5 L239.2091 432.5 Z" clip-path="url(#clipPath2)" stroke="none"/>
      <path fill="none" d="M15.1881 741.2664 L15.1881 329.0101" clip-path="url(#clipPath2)"/>
      <path d="M15.1881 321.0101 L10.1881 333.0101 L15.1881 330.0101 L20.1881 333.0101 Z" clip-path="url(#clipPath2)" stroke="none"/>
      <text x="-249.5189" xml:space="preserve" font-size="20px" y="641.7297" clip-path="url(#clipPath2)" stroke="none">Create/Read/Update/Delete</text>
      <text x="-226.6576" xml:space="preserve" font-size="20px" y="665.2844" clip-path="url(#clipPath2)" stroke="none">GSLB Entries over GRPC</text>
    </g>
  </g>
</svg>
